<svg width="32" height="24" viewBox="0 0 32 24" fill="none" xmlns="http://www.w3.org/2000/svg">
<path d="M18.9091 7.32591C18.9091 7.17329 18.9576 7.02703 19.0545 6.88712C19.1515 6.74722 19.2606 6.65183 19.3818 6.60095C20.1091 6.32114 20.8545 6.10493 21.6182 5.95231C22.3818 5.79968 23.1758 5.72337 24 5.72337C24.5333 5.72337 25.0545 5.75517 25.5636 5.81876C26.0727 5.88235 26.5697 5.97774 27.0545 6.10493C27.2 6.1558 27.3333 6.25119 27.4545 6.3911C27.5758 6.531 27.6364 6.68998 27.6364 6.86804C27.6364 7.14785 27.5455 7.36407 27.3636 7.51669C27.1818 7.66932 26.9576 7.70747 26.6909 7.63116C26.2788 7.50397 25.8485 7.40859 25.4 7.34499C24.9515 7.2814 24.4848 7.2496 24 7.2496C23.297 7.2496 22.6182 7.31955 21.9636 7.45946C21.3091 7.59936 20.6667 7.80922 20.0364 8.08903C19.697 8.21622 19.4242 8.20986 19.2182 8.06995C19.0121 7.93005 18.9091 7.68204 18.9091 7.32591ZM18.9091 15.7202C18.9091 15.5676 18.9576 15.4149 19.0545 15.2623C19.1515 15.1097 19.2606 15.0079 19.3818 14.9571C20.1091 14.6773 20.8545 14.4674 21.6182 14.3275C22.3818 14.1876 23.1758 14.1176 24 14.1176C24.5333 14.1176 25.0545 14.1494 25.5636 14.213C26.0727 14.2766 26.5697 14.372 27.0545 14.4992C27.2 14.5501 27.3333 14.6455 27.4545 14.7854C27.5758 14.9253 27.6364 15.0843 27.6364 15.2623C27.6364 15.5421 27.5455 15.7583 27.3636 15.911C27.1818 16.0636 26.9576 16.1017 26.6909 16.0254C26.2788 15.8983 25.8485 15.8029 25.4 15.7393C24.9515 15.6757 24.4848 15.6439 24 15.6439C23.297 15.6439 22.6182 15.7075 21.9636 15.8347C21.3091 15.9618 20.6667 16.1653 20.0364 16.4452C19.697 16.5723 19.4242 16.5723 19.2182 16.4452C19.0121 16.318 18.9091 16.0763 18.9091 15.7202ZM18.9091 11.5231C18.9091 11.3704 18.9576 11.2242 19.0545 11.0843C19.1515 10.9444 19.2606 10.849 19.3818 10.7981C20.1091 10.5183 20.8545 10.3021 21.6182 10.1494C22.3818 9.99682 23.1758 9.92051 24 9.92051C24.5333 9.92051 25.0545 9.95231 25.5636 10.0159C26.0727 10.0795 26.5697 10.1749 27.0545 10.3021C27.2 10.3529 27.3333 10.4483 27.4545 10.5882C27.5758 10.7281 27.6364 10.8871 27.6364 11.0652C27.6364 11.345 27.5455 11.5612 27.3636 11.7138C27.1818 11.8665 26.9576 11.9046 26.6909 11.8283C26.2788 11.7011 25.8485 11.6057 25.4 11.5421C24.9515 11.4785 24.4848 11.4467 24 11.4467C23.297 11.4467 22.6182 11.5167 21.9636 11.6566C21.3091 11.7965 20.6667 12.0064 20.0364 12.2862C19.697 12.4134 19.4242 12.407 19.2182 12.2671C19.0121 12.1272 18.9091 11.8792 18.9091 11.5231ZM17.1636 20.9857C18.3758 20.3498 19.5636 19.8728 20.7273 19.5548C21.8909 19.2369 23.1273 19.0779 24.4364 19.0779C25.3576 19.0779 26.3091 19.1542 27.2909 19.3068C28.2727 19.4595 29.1152 19.663 29.8182 19.9173V3.54849C28.9939 3.11606 28.1212 2.79809 27.2 2.59459C26.2788 2.3911 25.3576 2.28935 24.4364 2.28935C23.1273 2.28935 21.8606 2.4992 20.6364 2.91892C19.4121 3.33863 18.2545 3.93005 17.1636 4.69316V20.9857ZM16.0727 24C15.8788 24 15.703 23.9809 15.5455 23.9428C15.3879 23.9046 15.2485 23.8347 15.1273 23.7329C13.9879 22.9952 12.7758 22.4229 11.4909 22.0159C10.2061 21.6089 8.89697 21.4054 7.56364 21.4054C6.66667 21.4054 5.79394 21.5199 4.94545 21.7488C4.09697 21.9777 3.24848 22.2576 2.4 22.5882C1.84242 22.868 1.30303 22.8299 0.781818 22.4738C0.260606 22.1176 0 21.6089 0 20.9475V3.2814C0 2.89984 0.0848484 2.55008 0.254545 2.23211C0.424242 1.91415 0.678788 1.66614 1.01818 1.48808C2.03636 0.979332 3.09697 0.604134 4.2 0.36248C5.30303 0.120827 6.42424 0 7.56364 0C9.09091 0 10.5758 0.216216 12.0182 0.648649C13.4606 1.08108 14.8121 1.74245 16.0727 2.63275C17.3091 1.74245 18.6364 1.08108 20.0545 0.648649C21.4727 0.216216 22.9333 0 24.4364 0C25.5758 0 26.6909 0.120827 27.7818 0.36248C28.8727 0.604134 29.9273 0.979332 30.9455 1.48808C31.2848 1.66614 31.5455 1.91415 31.7273 2.23211C31.9091 2.55008 32 2.89984 32 3.2814V20.9475C32 21.6598 31.7273 22.2003 31.1818 22.5692C30.6364 22.938 30.097 22.9444 29.5636 22.5882C28.7394 22.2321 27.903 21.9459 27.0545 21.7297C26.2061 21.5135 25.3333 21.4054 24.4364 21.4054C23.1273 21.4054 21.8424 21.6089 20.5818 22.0159C19.3212 22.4229 18.1333 22.9952 17.0182 23.7329C16.897 23.8347 16.7576 23.9046 16.6 23.9428C16.4424 23.9809 16.2667 24 16.0727 24Z" fill="url(#paint0_linear_16_80)"/>
<defs>
<linearGradient id="paint0_linear_16_80" x1="16" y1="0" x2="16" y2="24" gradientUnits="userSpaceOnUse">
<stop stop-color="#49E1A1"/>
<stop offset="1" stop-color="#12A1A1"/>
</linearGradient>
</defs>
</svg>
