<svg width="32" height="24" viewBox="0 0 32 24" fill="none" xmlns="http://www.w3.org/2000/svg">
<path d="M18.1212 24C17.5553 24 17.1432 23.85 16.8848 23.55C16.6265 23.25 16.5957 22.88 16.7926 22.44L22.2179 10.74C22.3655 10.42 22.6361 10.15 23.0298 9.93C23.4235 9.71 23.8295 9.6 24.2477 9.6C24.666 9.6 25.0781 9.71 25.4841 9.93C25.8901 10.15 26.1669 10.42 26.3145 10.74L31.8505 22.32C32.072 22.78 32.0474 23.175 31.7767 23.505C31.5061 23.835 31.0509 24 30.4112 24C30.1405 24 29.8822 23.93 29.6361 23.79C29.3901 23.65 29.2178 23.47 29.1194 23.25L27.9015 20.22H20.8154L19.413 23.28C19.3145 23.48 19.1423 23.65 18.8963 23.79C18.6502 23.93 18.3919 24 18.1212 24V24ZM21.6274 18.12H26.8681L24.2846 12.3H24.2108L21.6274 18.12ZM9.18978 7.86C9.55885 8.38 9.96482 8.885 10.4077 9.375C10.8506 9.865 11.3304 10.37 11.8471 10.89C12.9543 9.95 13.8769 8.975 14.6151 7.965C15.3532 6.955 15.9806 5.9 16.4973 4.8H1.47627C1.05799 4.8 0.707379 4.685 0.424428 4.455C0.141476 4.225 0 3.94 0 3.6C0 3.26 0.141476 2.975 0.424428 2.745C0.707379 2.515 1.05799 2.4 1.47627 2.4H10.3339V1.2C10.3339 0.86 10.4754 0.575 10.7583 0.345C11.0413 0.115 11.3919 0 11.8102 0C12.2284 0 12.5791 0.115 12.862 0.345C13.145 0.575 13.2864 0.86 13.2864 1.2V2.4H22.1441C22.5623 2.4 22.9129 2.515 23.1959 2.745C23.4788 2.975 23.6203 3.26 23.6203 3.6C23.6203 3.94 23.4788 4.225 23.1959 4.455C22.9129 4.685 22.5623 4.8 22.1441 4.8H19.4499C18.9086 6.18 18.1889 7.535 17.2908 8.865C16.3927 10.195 15.2917 11.46 13.9877 12.66L17.6045 15.63L16.4973 18.06L11.8102 14.4L5.42529 19.59C5.15464 19.81 4.82248 19.92 4.42881 19.92C4.03514 19.92 3.70298 19.8 3.43233 19.56C3.13707 19.34 2.98945 19.07 2.98945 18.75C2.98945 18.43 3.13707 18.15 3.43233 17.91L9.92792 12.63C9.2882 12.01 8.68539 11.385 8.11949 10.755C7.55358 10.125 7.03689 9.48 6.5694 8.82C6.27415 8.38 6.24954 8 6.49559 7.68C6.74163 7.36 7.18451 7.2 7.82423 7.2C8.09488 7.2 8.35938 7.265 8.61773 7.395C8.87607 7.525 9.06676 7.68 9.18978 7.86V7.86Z" fill="url(#paint0_linear_16_82)"/>
<defs>
<linearGradient id="paint0_linear_16_82" x1="16" y1="0" x2="16" y2="24" gradientUnits="userSpaceOnUse">
<stop stop-color="#49E1A1"/>
<stop offset="1" stop-color="#12A1A1"/>
</linearGradient>
</defs>
</svg>
