<svg width="218" height="31" viewBox="0 0 218 31" fill="none" xmlns="http://www.w3.org/2000/svg">
<path d="M19.22 18.86L16.52 10.88C16.32 10.3733 16.1066 9.78 15.88 9.1C15.6533 8.40667 15.4266 7.66 15.2 6.86C15 7.67333 14.7866 8.42667 14.56 9.12C14.3333 9.81333 14.12 10.4133 13.92 10.92L11.24 18.86H19.22ZM29.96 30H24.72C24.1333 30 23.66 29.8667 23.3 29.6C22.94 29.32 22.6666 28.9667 22.48 28.54L20.76 23.46H9.67998L7.95998 28.54C7.81331 28.9133 7.54665 29.2533 7.15998 29.56C6.78665 29.8533 6.31998 30 5.75998 30H0.47998L11.76 0.859999H18.68L29.96 30Z" fill="#0B0B0B"/>
<path d="M37.2575 11.5C37.6575 11.1267 38.0708 10.78 38.4975 10.46C38.9241 10.14 39.3775 9.87333 39.8575 9.66C40.3508 9.43333 40.8775 9.26 41.4375 9.14C42.0108 9.00666 42.6308 8.94 43.2975 8.94C44.4308 8.94 45.4308 9.14 46.2975 9.54C47.1775 9.92667 47.9175 10.4733 48.5175 11.18C49.1175 11.8733 49.5708 12.7067 49.8775 13.68C50.1842 14.64 50.3375 15.6867 50.3375 16.82V30H44.1375V16.82C44.1375 15.8067 43.9041 15.02 43.4375 14.46C42.9708 13.8867 42.2841 13.6 41.3775 13.6C40.6975 13.6 40.0575 13.7467 39.4575 14.04C38.8708 14.32 38.2975 14.7067 37.7375 15.2V30H31.5375V9.26H35.3775C36.1508 9.26 36.6575 9.60667 36.8975 10.3L37.2575 11.5Z" fill="#0B0B0B"/>
<path d="M65.05 21.56C63.81 21.6133 62.79 21.72 61.99 21.88C61.19 22.04 60.5566 22.24 60.09 22.48C59.6233 22.72 59.2966 22.9933 59.11 23.3C58.9366 23.6067 58.85 23.94 58.85 24.3C58.85 25.0067 59.0433 25.5067 59.43 25.8C59.8166 26.08 60.3833 26.22 61.13 26.22C61.93 26.22 62.63 26.08 63.23 25.8C63.83 25.52 64.4366 25.0667 65.05 24.44V21.56ZM53.89 12.14C55.1433 11.0333 56.53 10.2133 58.05 9.68C59.5833 9.13333 61.2233 8.86 62.97 8.86C64.2233 8.86 65.35 9.06667 66.35 9.48C67.3633 9.88 68.2166 10.4467 68.91 11.18C69.6166 11.9 70.1567 12.76 70.53 13.76C70.9033 14.76 71.09 15.8533 71.09 17.04V30H68.25C67.6633 30 67.2166 29.92 66.91 29.76C66.6166 29.6 66.37 29.2667 66.17 28.76L65.73 27.62C65.21 28.06 64.71 28.4467 64.23 28.78C63.75 29.1133 63.25 29.4 62.73 29.64C62.2233 29.8667 61.6766 30.0333 61.09 30.14C60.5166 30.26 59.8766 30.32 59.17 30.32C58.2233 30.32 57.3633 30.2 56.59 29.96C55.8166 29.7067 55.1566 29.34 54.61 28.86C54.0766 28.38 53.6633 27.7867 53.37 27.08C53.0766 26.36 52.93 25.5333 52.93 24.6C52.93 23.8533 53.1166 23.1 53.49 22.34C53.8633 21.5667 54.51 20.8667 55.43 20.24C56.35 19.6 57.59 19.0667 59.15 18.64C60.71 18.2133 62.6766 17.9733 65.05 17.92V17.04C65.05 15.8267 64.7966 14.9533 64.29 14.42C63.7966 13.8733 63.09 13.6 62.17 13.6C61.4366 13.6 60.8366 13.68 60.37 13.84C59.9033 14 59.4833 14.18 59.11 14.38C58.75 14.58 58.3966 14.76 58.05 14.92C57.7033 15.08 57.29 15.16 56.81 15.16C56.3833 15.16 56.0233 15.0533 55.73 14.84C55.4366 14.6267 55.1966 14.3733 55.01 14.08L53.89 12.14Z" fill="#0B0B0B"/>
<path d="M101.131 6.78C100.931 7.1 100.718 7.34 100.491 7.5C100.278 7.66 99.9976 7.74 99.6509 7.74C99.3443 7.74 99.0109 7.64667 98.6509 7.46C98.3043 7.26 97.9043 7.04 97.4509 6.8C97.0109 6.56 96.5042 6.34666 95.9309 6.16C95.3576 5.96 94.7043 5.86 93.9709 5.86C92.7043 5.86 91.7576 6.13333 91.1309 6.68C90.5176 7.21333 90.2109 7.94 90.2109 8.86C90.2109 9.44667 90.3976 9.93333 90.7709 10.32C91.1443 10.7067 91.6309 11.04 92.2309 11.32C92.8443 11.6 93.5376 11.86 94.3109 12.1C95.0976 12.3267 95.8976 12.5867 96.7109 12.88C97.5243 13.16 98.3176 13.4933 99.0909 13.88C99.8776 14.2667 100.571 14.76 101.171 15.36C101.784 15.96 102.278 16.6933 102.651 17.56C103.024 18.4133 103.211 19.4467 103.211 20.66C103.211 22.0067 102.978 23.2667 102.511 24.44C102.044 25.6133 101.364 26.64 100.471 27.52C99.5909 28.3867 98.4976 29.0733 97.1909 29.58C95.8976 30.0733 94.4243 30.32 92.7709 30.32C91.8643 30.32 90.9376 30.2267 89.9909 30.04C89.0576 29.8533 88.1509 29.5933 87.2709 29.26C86.3909 28.9133 85.5642 28.5067 84.7909 28.04C84.0176 27.5733 83.3443 27.0533 82.7709 26.48L84.7709 23.32C84.9309 23.0933 85.1376 22.9067 85.3909 22.76C85.6576 22.6 85.9442 22.52 86.2509 22.52C86.6509 22.52 87.0509 22.6467 87.4509 22.9C87.8643 23.1533 88.3243 23.4333 88.8309 23.74C89.3509 24.0467 89.9442 24.3267 90.6109 24.58C91.2776 24.8333 92.0642 24.96 92.9709 24.96C94.1976 24.96 95.1509 24.6933 95.8309 24.16C96.5109 23.6133 96.8509 22.7533 96.8509 21.58C96.8509 20.9 96.6642 20.3467 96.2909 19.92C95.9176 19.4933 95.4243 19.14 94.8109 18.86C94.2109 18.58 93.5242 18.3333 92.7509 18.12C91.9776 17.9067 91.1843 17.6733 90.3709 17.42C89.5576 17.1533 88.7643 16.8333 87.9909 16.46C87.2176 16.0733 86.5243 15.5733 85.9109 14.96C85.3109 14.3333 84.8243 13.56 84.4509 12.64C84.0776 11.7067 83.8909 10.56 83.8909 9.2C83.8909 8.10666 84.1109 7.04 84.5509 6C84.9909 4.96 85.6376 4.03333 86.4909 3.22C87.3443 2.40666 88.3909 1.76 89.6309 1.28C90.8709 0.786665 92.2909 0.539999 93.8909 0.539999C94.7843 0.539999 95.6509 0.613332 96.4909 0.759999C97.3443 0.893332 98.1509 1.1 98.9109 1.38C99.6709 1.64667 100.378 1.97333 101.031 2.36C101.698 2.73333 102.291 3.16 102.811 3.64L101.131 6.78Z" fill="#0B0B0B"/>
<path d="M116.886 21.56C115.646 21.6133 114.626 21.72 113.826 21.88C113.026 22.04 112.393 22.24 111.926 22.48C111.459 22.72 111.133 22.9933 110.946 23.3C110.773 23.6067 110.686 23.94 110.686 24.3C110.686 25.0067 110.879 25.5067 111.266 25.8C111.653 26.08 112.219 26.22 112.966 26.22C113.766 26.22 114.466 26.08 115.066 25.8C115.666 25.52 116.273 25.0667 116.886 24.44V21.56ZM105.726 12.14C106.979 11.0333 108.366 10.2133 109.886 9.68C111.419 9.13333 113.059 8.86 114.806 8.86C116.059 8.86 117.186 9.06667 118.186 9.48C119.199 9.88 120.053 10.4467 120.746 11.18C121.453 11.9 121.993 12.76 122.366 13.76C122.739 14.76 122.926 15.8533 122.926 17.04V30H120.086C119.499 30 119.053 29.92 118.746 29.76C118.453 29.6 118.206 29.2667 118.006 28.76L117.566 27.62C117.046 28.06 116.546 28.4467 116.066 28.78C115.586 29.1133 115.086 29.4 114.566 29.64C114.059 29.8667 113.513 30.0333 112.926 30.14C112.353 30.26 111.713 30.32 111.006 30.32C110.059 30.32 109.199 30.2 108.426 29.96C107.653 29.7067 106.993 29.34 106.446 28.86C105.913 28.38 105.499 27.7867 105.206 27.08C104.913 26.36 104.766 25.5333 104.766 24.6C104.766 23.8533 104.953 23.1 105.326 22.34C105.699 21.5667 106.346 20.8667 107.266 20.24C108.186 19.6 109.426 19.0667 110.986 18.64C112.546 18.2133 114.513 17.9733 116.886 17.92V17.04C116.886 15.8267 116.633 14.9533 116.126 14.42C115.633 13.8733 114.926 13.6 114.006 13.6C113.273 13.6 112.673 13.68 112.206 13.84C111.739 14 111.319 14.18 110.946 14.38C110.586 14.58 110.233 14.76 109.886 14.92C109.539 15.08 109.126 15.16 108.646 15.16C108.219 15.16 107.859 15.0533 107.566 14.84C107.273 14.6267 107.033 14.3733 106.846 14.08L105.726 12.14Z" fill="#0B0B0B"/>
<path d="M132.609 11.5C133.009 11.1267 133.422 10.78 133.849 10.46C134.276 10.14 134.729 9.87333 135.209 9.66C135.702 9.43333 136.229 9.26 136.789 9.14C137.362 9.00666 137.982 8.94 138.649 8.94C139.782 8.94 140.782 9.14 141.649 9.54C142.529 9.92667 143.269 10.4733 143.869 11.18C144.469 11.8733 144.922 12.7067 145.229 13.68C145.536 14.64 145.689 15.6867 145.689 16.82V30H139.489V16.82C139.489 15.8067 139.256 15.02 138.789 14.46C138.322 13.8867 137.636 13.6 136.729 13.6C136.049 13.6 135.409 13.7467 134.809 14.04C134.222 14.32 133.649 14.7067 133.089 15.2V30H126.889V9.26H130.729C131.502 9.26 132.009 9.60667 132.249 10.3L132.609 11.5Z" fill="#0B0B0B"/>
<path d="M162.282 14.82C161.815 14.3 161.308 13.94 160.762 13.74C160.215 13.5267 159.642 13.42 159.042 13.42C158.468 13.42 157.942 13.5333 157.462 13.76C156.982 13.9867 156.562 14.3533 156.202 14.86C155.855 15.3533 155.582 16 155.382 16.8C155.182 17.6 155.082 18.5667 155.082 19.7C155.082 20.7933 155.162 21.7133 155.322 22.46C155.482 23.2067 155.702 23.8133 155.982 24.28C156.275 24.7333 156.622 25.06 157.022 25.26C157.422 25.46 157.868 25.56 158.362 25.56C158.815 25.56 159.222 25.52 159.582 25.44C159.955 25.3467 160.295 25.22 160.602 25.06C160.908 24.9 161.195 24.7 161.462 24.46C161.742 24.2067 162.015 23.92 162.282 23.6V14.82ZM168.482 0.0599976V30H164.642C163.868 30 163.362 29.6533 163.122 28.96L162.642 27.38C162.228 27.82 161.795 28.22 161.342 28.58C160.888 28.94 160.395 29.2533 159.862 29.52C159.342 29.7733 158.775 29.9667 158.162 30.1C157.562 30.2467 156.908 30.32 156.202 30.32C155.122 30.32 154.122 30.08 153.202 29.6C152.282 29.12 151.488 28.4267 150.822 27.52C150.155 26.6133 149.628 25.5067 149.242 24.2C148.868 22.88 148.682 21.38 148.682 19.7C148.682 18.1533 148.895 16.72 149.322 15.4C149.748 14.0667 150.348 12.92 151.122 11.96C151.908 10.9867 152.848 10.2267 153.942 9.68C155.035 9.13333 156.242 8.86 157.562 8.86C158.642 8.86 159.548 9.01333 160.282 9.32C161.015 9.62667 161.682 10.04 162.282 10.56V0.0599976H168.482Z" fill="#0B0B0B"/>
<path d="M185.57 17.14C185.57 16.6467 185.504 16.1667 185.37 15.7C185.25 15.2333 185.044 14.82 184.75 14.46C184.47 14.0867 184.097 13.7867 183.63 13.56C183.164 13.3333 182.597 13.22 181.93 13.22C180.757 13.22 179.837 13.56 179.17 14.24C178.504 14.9067 178.064 15.8733 177.85 17.14H185.57ZM177.77 20.74C177.97 22.4733 178.497 23.7333 179.35 24.52C180.204 25.2933 181.304 25.68 182.65 25.68C183.37 25.68 183.99 25.5933 184.51 25.42C185.03 25.2467 185.49 25.0533 185.89 24.84C186.304 24.6267 186.677 24.4333 187.01 24.26C187.357 24.0867 187.717 24 188.09 24C188.584 24 188.957 24.18 189.21 24.54L191.01 26.76C190.37 27.4933 189.677 28.0933 188.93 28.56C188.197 29.0133 187.437 29.3733 186.65 29.64C185.877 29.8933 185.097 30.0667 184.31 30.16C183.537 30.2667 182.797 30.32 182.09 30.32C180.637 30.32 179.27 30.0867 177.99 29.62C176.724 29.14 175.61 28.4333 174.65 27.5C173.704 26.5667 172.95 25.4067 172.39 24.02C171.844 22.6333 171.57 21.02 171.57 19.18C171.57 17.7933 171.804 16.48 172.27 15.24C172.75 14 173.43 12.9133 174.31 11.98C175.204 11.0467 176.277 10.3067 177.53 9.76C178.797 9.21333 180.224 8.94 181.81 8.94C183.184 8.94 184.437 9.15333 185.57 9.58C186.717 10.0067 187.697 10.6267 188.51 11.44C189.337 12.2533 189.977 13.2533 190.43 14.44C190.897 15.6133 191.13 16.9467 191.13 18.44C191.13 18.9067 191.11 19.2867 191.07 19.58C191.03 19.8733 190.957 20.1067 190.85 20.28C190.744 20.4533 190.597 20.5733 190.41 20.64C190.237 20.7067 190.01 20.74 189.73 20.74H177.77Z" fill="#0B0B0B"/>
<path d="M200.033 12.46C200.673 11.34 201.406 10.46 202.233 9.82C203.073 9.18 204.033 8.86 205.113 8.86C206.046 8.86 206.806 9.08 207.393 9.52L206.993 14.08C206.926 14.3733 206.813 14.5733 206.653 14.68C206.506 14.7867 206.299 14.84 206.033 14.84C205.926 14.84 205.786 14.8333 205.613 14.82C205.439 14.8067 205.259 14.7933 205.073 14.78C204.886 14.7533 204.693 14.7333 204.493 14.72C204.306 14.6933 204.133 14.68 203.973 14.68C203.066 14.68 202.339 14.92 201.793 15.4C201.259 15.88 200.806 16.5467 200.433 17.4V30H194.233V9.26H197.913C198.219 9.26 198.473 9.28667 198.673 9.34C198.886 9.39333 199.059 9.48 199.193 9.6C199.339 9.70666 199.446 9.85333 199.513 10.04C199.593 10.2267 199.659 10.4533 199.713 10.72L200.033 12.46Z" fill="#0B0B0B"/>
<path d="M208 23C208 21.3431 209.343 20 211 20H215C216.657 20 218 21.3431 218 23V27C218 28.6569 216.657 30 215 30H211C209.343 30 208 28.6569 208 27V23Z" fill="url(#paint0_linear_27_2)"/>
<defs>
<linearGradient id="paint0_linear_27_2" x1="109.24" y1="0.0599976" x2="109.24" y2="30.32" gradientUnits="userSpaceOnUse">
<stop stop-color="#49E1A1"/>
<stop offset="1" stop-color="#12A1A1"/>
</linearGradient>
</defs>
</svg>
